STARTFONT 2.1
FONT -Monotype-Arial-Bold-R-Normal--10-100-75-75-P-53-iso8859-5
SIZE 10 75 75
FONTBOUNDINGBOX 12 12 -1 -2

STARTPROPERTIES 24
FOUNDRY "Monotype"
FAMILY_NAME "Arial"
WEIGHT_NAME "Bold"
SLANT "R"
SETWIDTH_NAME "Normal"
ADD_STYLE_NAME ""
PIXEL_SIZE 10
POINT_SIZE 100
RESOLUTION_X 75
RESOLUTION_Y 75
SPACING "P"
AVERAGE_WIDTH 53
CHARSET_REGISTRY "iso8859"
CHARSET_ENCODING "5"
FACE_NAME "Arial Bold ISO Latin Cyrillic"
_DEC_DEVICE_FONTNAMES "PS=arial-b-latcyrillic"
COPYRIGHT "Copyright (c) 1994 Monotype Typography Ltd."
CAP_HEIGHT 8
X_HEIGHT 6
WEIGHT 10
QUAD_WIDTH 7
DEFAULT_CHAR 160
FONT_DESCENT 2
FONT_ASCENT 10
ENDPROPERTIES

CHARS 191

STARTCHAR space
ENCODING 32
SWIDTH 278 0
DWIDTH 3 0
BBX 0 0 0 0
BITMAP
ENDCHAR

STARTCHAR exclam
ENCODING 33
SWIDTH 333 0
DWIDTH 3 0
BBX 2 7 1 0
BITMAP
C0
C0
C0
C0
C0
00
C0
ENDCHAR

STARTCHAR quotedbl
ENCODING 34
SWIDTH 474 0
DWIDTH 5 0
BBX 5 3 0 4
BITMAP
D8
D8
D8
ENDCHAR

STARTCHAR numbersign
ENCODING 35
SWIDTH 556 0
DWIDTH 6 0
BBX 7 8 -1 0
BITMAP
14
14
7E
28
28
FC
50
50
ENDCHAR

STARTCHAR dollar
ENCODING 36
SWIDTH 556 0
DWIDTH 6 0
BBX 5 9 1 -1
BITMAP
20
78
A8
E0
70
38
A8
F0
20
ENDCHAR

STARTCHAR percent
ENCODING 37
SWIDTH 889 0
DWIDTH 9 0
BBX 8 8 1 -1
BITMAP
44
A4
A8
48
12
15
25
22
ENDCHAR

STARTCHAR ampersand
ENCODING 38
SWIDTH 722 0
DWIDTH 7 0
BBX 7 7 0 0
BITMAP
30
58
38
70
D4
CC
76
ENDCHAR

STARTCHAR quoteright
ENCODING 39
SWIDTH 278 0
DWIDTH 3 0
BBX 2 3 1 4
BITMAP
C0
40
80
ENDCHAR

STARTCHAR parenleft
ENCODING 40
SWIDTH 333 0
DWIDTH 3 0
BBX 3 9 0 -2
BITMAP
20
60
40
C0
C0
C0
40
60
20
ENDCHAR

STARTCHAR parenright
ENCODING 41
SWIDTH 333 0
DWIDTH 3 0
BBX 3 9 0 -2
BITMAP
80
C0
40
60
60
60
40
C0
80
ENDCHAR

STARTCHAR asterisk
ENCODING 42
SWIDTH 389 0
DWIDTH 4 0
BBX 3 4 1 3
BITMAP
40
E0
40
A0
ENDCHAR

STARTCHAR plus
ENCODING 43
SWIDTH 584 0
DWIDTH 6 0
BBX 5 5 1 1
BITMAP
20
20
F8
20
20
ENDCHAR

STARTCHAR comma
ENCODING 44
SWIDTH 278 0
DWIDTH 3 0
BBX 2 3 1 -2
BITMAP
C0
40
80
ENDCHAR

STARTCHAR minus
ENCODING 45
SWIDTH 584 0
DWIDTH 6 0
BBX 5 1 1 3
BITMAP
F8
ENDCHAR

STARTCHAR period
ENCODING 46
SWIDTH 278 0
DWIDTH 3 0
BBX 2 1 1 0
BITMAP
C0
ENDCHAR

STARTCHAR slash
ENCODING 47
SWIDTH 278 0
DWIDTH 3 0
BBX 3 7 0 0
BITMAP
20
20
60
40
C0
80
80
ENDCHAR

STARTCHAR zero
ENCODING 48
SWIDTH 556 0
DWIDTH 6 0
BBX 5 7 1 0
BITMAP
70
D8
D8
D8
D8
D8
70
ENDCHAR

STARTCHAR one
ENCODING 49
SWIDTH 556 0
DWIDTH 6 0
BBX 4 7 1 0
BITMAP
30
F0
30
30
30
30
30
ENDCHAR

STARTCHAR two
ENCODING 50
SWIDTH 556 0
DWIDTH 6 0
BBX 5 7 1 0
BITMAP
30
58
18
10
20
40
F8
ENDCHAR

STARTCHAR three
ENCODING 51
SWIDTH 556 0
DWIDTH 6 0
BBX 5 7 1 0
BITMAP
30
58
18
30
18
D8
70
ENDCHAR

STARTCHAR four
ENCODING 52
SWIDTH 556 0
DWIDTH 6 0
BBX 5 7 1 0
BITMAP
10
30
70
B0
F8
30
30
ENDCHAR

STARTCHAR five
ENCODING 53
SWIDTH 556 0
DWIDTH 6 0
BBX 5 7 1 0
BITMAP
78
40
70
58
18
D8
70
ENDCHAR

STARTCHAR six
ENCODING 54
SWIDTH 556 0
DWIDTH 6 0
BBX 5 7 1 0
BITMAP
38
40
F0
D8
D8
D8
70
ENDCHAR

STARTCHAR seven
ENCODING 55
SWIDTH 556 0
DWIDTH 6 0
BBX 5 7 1 0
BITMAP
F8
10
10
30
20
60
60
ENDCHAR

STARTCHAR eight
ENCODING 56
SWIDTH 556 0
DWIDTH 6 0
BBX 5 7 1 0
BITMAP
70
D8
D8
70
D8
D8
70
ENDCHAR

STARTCHAR nine
ENCODING 57
SWIDTH 556 0
DWIDTH 6 0
BBX 5 7 1 0
BITMAP
70
D8
D8
D8
78
10
E0
ENDCHAR

STARTCHAR colon
ENCODING 58
SWIDTH 333 0
DWIDTH 3 0
BBX 2 5 1 0
BITMAP
C0
00
00
00
C0
ENDCHAR

STARTCHAR semicolon
ENCODING 59
SWIDTH 333 0
DWIDTH 3 0
BBX 2 7 1 -2
BITMAP
C0
00
00
00
C0
40
80
ENDCHAR

STARTCHAR less
ENCODING 60
SWIDTH 584 0
DWIDTH 6 0
BBX 4 5 1 1
BITMAP
10
60
80
60
10
ENDCHAR

STARTCHAR equal
ENCODING 61
SWIDTH 584 0
DWIDTH 6 0
BBX 5 3 1 2
BITMAP
F8
00
F8
ENDCHAR

STARTCHAR greater
ENCODING 62
SWIDTH 584 0
DWIDTH 6 0
BBX 4 5 1 1
BITMAP
80
60
10
60
80
ENDCHAR

STARTCHAR question
ENCODING 63
SWIDTH 611 0
DWIDTH 6 0
BBX 5 7 1 0
BITMAP
70
D8
18
30
30
00
30
ENDCHAR

STARTCHAR at
ENCODING 64
SWIDTH 975 0
DWIDTH 10 0
BBX 9 9 1 -2
BITMAP
1E00
6100
5A80
B680
A680
A500
BA00
4180
3F00
ENDCHAR

STARTCHAR A
ENCODING 65
SWIDTH 722 0
DWIDTH 8 0
BBX 7 7 1 0
BITMAP
38
38
6C
6C
7C
C6
C6
ENDCHAR

STARTCHAR B
ENCODING 66
SWIDTH 722 0
DWIDTH 7 0
BBX 6 7 1 0
BITMAP
F8
CC
CC
F8
CC
CC
F8
ENDCHAR

STARTCHAR C
ENCODING 67
SWIDTH 722 0
DWIDTH 7 0
BBX 6 7 1 0
BITMAP
78
CC
C0
C0
C0
CC
78
ENDCHAR

STARTCHAR D
ENCODING 68
SWIDTH 722 0
DWIDTH 7 0
BBX 6 7 1 0
BITMAP
F8
CC
CC
CC
CC
CC
F8
ENDCHAR

STARTCHAR E
ENCODING 69
SWIDTH 667 0
DWIDTH 6 0
BBX 5 7 1 0
BITMAP
F8
C0
C0
F8
C0
C0
F8
ENDCHAR

STARTCHAR F
ENCODING 70
SWIDTH 611 0
DWIDTH 6 0
BBX 5 7 1 0
BITMAP
F8
C0
C0
F0
C0
C0
C0
ENDCHAR

STARTCHAR G
ENCODING 71
SWIDTH 778 0
DWIDTH 7 0
BBX 6 7 1 0
BITMAP
78
CC
C0
DC
CC
CC
78
ENDCHAR

STARTCHAR H
ENCODING 72
SWIDTH 722 0
DWIDTH 7 0
BBX 6 7 1 0
BITMAP
CC
CC
CC
FC
CC
CC
CC
ENDCHAR

STARTCHAR I
ENCODING 73
SWIDTH 278 0
DWIDTH 3 0
BBX 2 7 1 0
BITMAP
C0
C0
C0
C0
C0
C0
C0
ENDCHAR

STARTCHAR J
ENCODING 74
SWIDTH 556 0
DWIDTH 6 0
BBX 5 7 1 0
BITMAP
18
18
18
18
18
D8
70
ENDCHAR

STARTCHAR K
ENCODING 75
SWIDTH 722 0
DWIDTH 7 0
BBX 6 7 1 0
BITMAP
CC
D8
F0
E0
F0
D8
CC
ENDCHAR

STARTCHAR L
ENCODING 76
SWIDTH 611 0
DWIDTH 6 0
BBX 5 7 1 0
BITMAP
C0
C0
C0
C0
C0
C0
F8
ENDCHAR

STARTCHAR M
ENCODING 77
SWIDTH 833 0
DWIDTH 10 0
BBX 9 7 1 0
BITMAP
C180
E380
E380
F780
D580
DD80
C980
ENDCHAR

STARTCHAR N
ENCODING 78
SWIDTH 722 0
DWIDTH 7 0
BBX 6 7 1 0
BITMAP
CC
EC
EC
FC
DC
DC
CC
ENDCHAR

STARTCHAR O
ENCODING 79
SWIDTH 778 0
DWIDTH 8 0
BBX 7 7 1 0
BITMAP
7C
C6
C6
C6
C6
C6
7C
ENDCHAR

STARTCHAR P
ENCODING 80
SWIDTH 667 0
DWIDTH 7 0
BBX 6 7 1 0
BITMAP
F8
CC
CC
F8
C0
C0
C0
ENDCHAR

STARTCHAR Q
ENCODING 81
SWIDTH 778 0
DWIDTH 8 0
BBX 7 8 1 -1
BITMAP
7C
C6
C6
C6
D6
DE
7C
06
ENDCHAR

STARTCHAR R
ENCODING 82
SWIDTH 722 0
DWIDTH 7 0
BBX 6 7 1 0
BITMAP
F8
CC
CC
F8
D8
CC
CC
ENDCHAR

STARTCHAR S
ENCODING 83
SWIDTH 667 0
DWIDTH 7 0
BBX 6 7 1 0
BITMAP
78
CC
C0
78
0C
CC
78
ENDCHAR

STARTCHAR T
ENCODING 84
SWIDTH 611 0
DWIDTH 7 0
BBX 6 7 1 0
BITMAP
FC
30
30
30
30
30
30
ENDCHAR

STARTCHAR U
ENCODING 85
SWIDTH 722 0
DWIDTH 7 0
BBX 6 7 1 0
BITMAP
CC
CC
CC
CC
CC
CC
78
ENDCHAR

STARTCHAR V
ENCODING 86
SWIDTH 667 0
DWIDTH 8 0
BBX 7 7 1 0
BITMAP
C6
C6
6C
6C
6C
38
38
ENDCHAR

STARTCHAR W
ENCODING 87
SWIDTH 944 0
DWIDTH 9 0
BBX 8 7 1 0
BITMAP
DB
DB
DB
FF
66
66
66
ENDCHAR

STARTCHAR X
ENCODING 88
SWIDTH 667 0
DWIDTH 7 0
BBX 6 7 1 0
BITMAP
CC
CC
78
30
78
CC
CC
ENDCHAR

STARTCHAR Y
ENCODING 89
SWIDTH 667 0
DWIDTH 7 0
BBX 6 7 1 0
BITMAP
CC
CC
78
78
30
30
30
ENDCHAR

STARTCHAR Z
ENCODING 90
SWIDTH 611 0
DWIDTH 7 0
BBX 6 7 1 0
BITMAP
FC
0C
18
30
60
C0
FC
ENDCHAR

STARTCHAR bracketleft
ENCODING 91
SWIDTH 333 0
DWIDTH 3 0
BBX 3 9 0 -2
BITMAP
E0
C0
C0
C0
C0
C0
C0
C0
E0
ENDCHAR

STARTCHAR backslash
ENCODING 92
SWIDTH 278 0
DWIDTH 3 0
BBX 3 7 0 0
BITMAP
80
80
C0
40
60
20
20
ENDCHAR

STARTCHAR bracketright
ENCODING 93
SWIDTH 333 0
DWIDTH 3 0
BBX 3 9 0 -2
BITMAP
E0
60
60
60
60
60
60
60
E0
ENDCHAR

STARTCHAR asciicircum
ENCODING 94
SWIDTH 584 0
DWIDTH 6 0
BBX 6 4 0 3
BITMAP
30
30
48
CC
ENDCHAR

STARTCHAR underscore
ENCODING 95
SWIDTH 556 0
DWIDTH 6 0
BBX 6 1 0 -2
BITMAP
FC
ENDCHAR

STARTCHAR quoteleft
ENCODING 96
SWIDTH 278 0
DWIDTH 3 0
BBX 2 3 1 4
BITMAP
40
80
C0
ENDCHAR

STARTCHAR a
ENCODING 97
SWIDTH 556 0
DWIDTH 6 0
BBX 5 5 1 0
BITMAP
70
98
78
D8
78
ENDCHAR

STARTCHAR b
ENCODING 98
SWIDTH 611 0
DWIDTH 6 0
BBX 5 7 1 0
BITMAP
C0
C0
F0
D8
D8
D8
F0
ENDCHAR

STARTCHAR c
ENCODING 99
SWIDTH 556 0
DWIDTH 6 0
BBX 5 5 1 0
BITMAP
70
D8
C0
D8
70
ENDCHAR

STARTCHAR d
ENCODING 100
SWIDTH 611 0
DWIDTH 6 0
BBX 5 7 1 0
BITMAP
18
18
78
D8
D8
D8
78
ENDCHAR

STARTCHAR e
ENCODING 101
SWIDTH 556 0
DWIDTH 6 0
BBX 5 5 1 0
BITMAP
70
D8
F8
C0
78
ENDCHAR

STARTCHAR f
ENCODING 102
SWIDTH 333 0
DWIDTH 3 0
BBX 4 7 0 0
BITMAP
30
60
F0
60
60
60
60
ENDCHAR

STARTCHAR g
ENCODING 103
SWIDTH 611 0
DWIDTH 6 0
BBX 5 7 1 -2
BITMAP
78
D8
D8
D8
78
18
F0
ENDCHAR

STARTCHAR h
ENCODING 104
SWIDTH 611 0
DWIDTH 6 0
BBX 5 7 1 0
BITMAP
C0
C0
F0
D8
D8
D8
D8
ENDCHAR

STARTCHAR i
ENCODING 105
SWIDTH 278 0
DWIDTH 3 0
BBX 2 7 1 0
BITMAP
C0
00
C0
C0
C0
C0
C0
ENDCHAR

STARTCHAR j
ENCODING 106
SWIDTH 278 0
DWIDTH 3 0
BBX 3 9 0 -2
BITMAP
60
00
60
60
60
60
60
60
C0
ENDCHAR

STARTCHAR k
ENCODING 107
SWIDTH 556 0
DWIDTH 6 0
BBX 5 7 1 0
BITMAP
C0
C0
D8
F0
E0
F0
D8
ENDCHAR

STARTCHAR l
ENCODING 108
SWIDTH 278 0
DWIDTH 3 0
BBX 2 7 1 0
BITMAP
C0
C0
C0
C0
C0
C0
C0
ENDCHAR

STARTCHAR m
ENCODING 109
SWIDTH 889 0
DWIDTH 9 0
BBX 8 5 1 0
BITMAP
B6
DB
DB
DB
DB
ENDCHAR

STARTCHAR n
ENCODING 110
SWIDTH 611 0
DWIDTH 6 0
BBX 5 5 1 0
BITMAP
B0
D8
D8
D8
D8
ENDCHAR

STARTCHAR o
ENCODING 111
SWIDTH 611 0
DWIDTH 6 0
BBX 5 5 1 0
BITMAP
70
D8
D8
D8
70
ENDCHAR

STARTCHAR p
ENCODING 112
SWIDTH 611 0
DWIDTH 6 0
BBX 5 7 1 -2
BITMAP
F0
D8
D8
D8
F0
C0
C0
ENDCHAR

STARTCHAR q
ENCODING 113
SWIDTH 611 0
DWIDTH 6 0
BBX 5 7 1 -2
BITMAP
78
D8
D8
D8
78
18
18
ENDCHAR

STARTCHAR r
ENCODING 114
SWIDTH 389 0
DWIDTH 4 0
BBX 4 5 1 0
BITMAP
D0
F0
E0
C0
C0
ENDCHAR

STARTCHAR s
ENCODING 115
SWIDTH 556 0
DWIDTH 6 0
BBX 5 5 1 0
BITMAP
78
E0
70
38
F0
ENDCHAR

STARTCHAR t
ENCODING 116
SWIDTH 333 0
DWIDTH 3 0
BBX 4 7 0 0
BITMAP
60
60
F0
60
60
60
30
ENDCHAR

STARTCHAR u
ENCODING 117
SWIDTH 611 0
DWIDTH 6 0
BBX 5 5 1 0
BITMAP
D8
D8
D8
D8
68
ENDCHAR

STARTCHAR v
ENCODING 118
SWIDTH 556 0
DWIDTH 6 0
BBX 5 5 1 0
BITMAP
D8
D8
D8
70
70
ENDCHAR

STARTCHAR w
ENCODING 119
SWIDTH 778 0
DWIDTH 8 0
BBX 7 5 1 0
BITMAP
D6
D6
6C
6C
6C
ENDCHAR

STARTCHAR x
ENCODING 120
SWIDTH 556 0
DWIDTH 6 0
BBX 5 5 1 0
BITMAP
D8
70
20
70
D8
ENDCHAR

STARTCHAR y
ENCODING 121
SWIDTH 556 0
DWIDTH 6 0
BBX 5 7 1 -2
BITMAP
D8
50
70
30
20
60
C0
ENDCHAR

STARTCHAR z
ENCODING 122
SWIDTH 500 0
DWIDTH 5 0
BBX 4 5 1 0
BITMAP
F0
30
60
C0
F0
ENDCHAR

STARTCHAR braceleft
ENCODING 123
SWIDTH 389 0
DWIDTH 4 0
BBX 4 9 0 -2
BITMAP
30
60
60
40
C0
40
60
60
30
ENDCHAR

STARTCHAR bar
ENCODING 124
SWIDTH 280 0
DWIDTH 3 0
BBX 2 9 1 -2
BITMAP
C0
C0
C0
C0
C0
C0
C0
C0
C0
ENDCHAR

STARTCHAR braceright
ENCODING 125
SWIDTH 389 0
DWIDTH 4 0
BBX 4 9 0 -2
BITMAP
C0
60
60
20
30
20
60
60
C0
ENDCHAR

STARTCHAR asciitilde
ENCODING 126
SWIDTH 584 0
DWIDTH 6 0
BBX 6 2 0 3
BITMAP
74
B8
ENDCHAR

STARTCHAR space
ENCODING 160
SWIDTH 278 0
DWIDTH 3 0
BBX 0 0 0 0
BITMAP
ENDCHAR

STARTCHAR afii10023
ENCODING 161
SWIDTH 667 0
DWIDTH 6 0
BBX 5 9 1 0
BITMAP
50
00
F8
C0
C0
F8
C0
C0
F8
ENDCHAR

STARTCHAR afii10051
ENCODING 162
SWIDTH 886 0
DWIDTH 9 0
BBX 9 7 0 0
BITMAP
FC00
3000
3F00
3180
3180
3180
3700
ENDCHAR

STARTCHAR afii10052
ENCODING 163
SWIDTH 579 0
DWIDTH 6 0
BBX 5 10 1 0
BITMAP
10
20
00
F8
C0
C0
C0
C0
C0
C0
ENDCHAR

STARTCHAR afii10053
ENCODING 164
SWIDTH 711 0
DWIDTH 7 0
BBX 6 7 1 0
BITMAP
78
CC
C0
F0
C0
CC
78
ENDCHAR

STARTCHAR afii10054
ENCODING 165
SWIDTH 667 0
DWIDTH 7 0
BBX 6 7 1 0
BITMAP
78
CC
C0
78
0C
CC
78
ENDCHAR

STARTCHAR afii10055
ENCODING 166
SWIDTH 278 0
DWIDTH 3 0
BBX 2 7 1 0
BITMAP
C0
C0
C0
C0
C0
C0
C0
ENDCHAR

STARTCHAR afii10056
ENCODING 167
SWIDTH 278 0
DWIDTH 3 0
BBX 4 9 0 0
BITMAP
90
00
60
60
60
60
60
60
60
ENDCHAR

STARTCHAR afii10057
ENCODING 168
SWIDTH 556 0
DWIDTH 6 0
BBX 5 7 1 0
BITMAP
18
18
18
18
18
D8
70
ENDCHAR

STARTCHAR afii10058
ENCODING 169
SWIDTH 1122 0
DWIDTH 11 0
BBX 11 7 0 0
BITMAP
7E00
6600
6600
67C0
6660
6660
C7C0
ENDCHAR

STARTCHAR afii10059
ENCODING 170
SWIDTH 1079 0
DWIDTH 11 0
BBX 10 7 1 0
BITMAP
CC00
CC00
CC00
FF80
CCC0
CCC0
CF80
ENDCHAR

STARTCHAR afii10060
ENCODING 171
SWIDTH 860 0
DWIDTH 9 0
BBX 8 7 1 0
BITMAP
FC
30
3E
33
33
33
33
ENDCHAR

STARTCHAR afii10061
ENCODING 172
SWIDTH 611 0
DWIDTH 6 0
BBX 5 10 1 0
BITMAP
10
20
00
D8
D8
F0
E0
F0
D8
D8
ENDCHAR

STARTCHAR hyphen
ENCODING 173
SWIDTH 333 0
DWIDTH 3 0
BBX 3 1 0 2
BITMAP
E0
ENDCHAR

STARTCHAR afii10062
ENCODING 174
SWIDTH 622 0
DWIDTH 6 0
BBX 6 10 0 0
BITMAP
48
30
00
CC
6C
68
38
30
30
60
ENDCHAR

STARTCHAR afii10145
ENCODING 175
SWIDTH 722 0
DWIDTH 7 0
BBX 6 9 1 -2
BITMAP
CC
CC
CC
CC
CC
CC
FC
30
30
ENDCHAR

STARTCHAR afii10017
ENCODING 176
SWIDTH 722 0
DWIDTH 8 0
BBX 7 7 1 0
BITMAP
38
38
6C
6C
7C
C6
C6
ENDCHAR

STARTCHAR afii10018
ENCODING 177
SWIDTH 719 0
DWIDTH 7 0
BBX 6 7 1 0
BITMAP
FC
C0
C0
F8
CC
CC
F8
ENDCHAR

STARTCHAR afii10019
ENCODING 178
SWIDTH 722 0
DWIDTH 7 0
BBX 6 7 1 0
BITMAP
F8
CC
CC
F8
CC
CC
F8
ENDCHAR

STARTCHAR afii10020
ENCODING 179
SWIDTH 579 0
DWIDTH 6 0
BBX 5 7 1 0
BITMAP
F8
C0
C0
C0
C0
C0
C0
ENDCHAR

STARTCHAR afii10021
ENCODING 180
SWIDTH 712 0
DWIDTH 7 0
BBX 7 9 0 -2
BITMAP
3E
36
36
36
66
66
FE
C6
C6
ENDCHAR

STARTCHAR afii10022
ENCODING 181
SWIDTH 667 0
DWIDTH 6 0
BBX 5 7 1 0
BITMAP
F8
C0
C0
F8
C0
C0
F8
ENDCHAR

STARTCHAR afii10024
ENCODING 182
SWIDTH 904 0
DWIDTH 9 0
BBX 8 7 1 0
BITMAP
DB
5A
7E
18
7E
5A
DB
ENDCHAR

STARTCHAR afii10025
ENCODING 183
SWIDTH 626 0
DWIDTH 6 0
BBX 5 7 1 0
BITMAP
70
D8
18
30
18
D8
70
ENDCHAR

STARTCHAR afii10026
ENCODING 184
SWIDTH 719 0
DWIDTH 7 0
BBX 6 7 1 0
BITMAP
CC
DC
DC
FC
EC
EC
CC
ENDCHAR

STARTCHAR afii10027
ENCODING 185
SWIDTH 719 0
DWIDTH 7 0
BBX 6 10 1 0
BITMAP
48
30
00
CC
DC
DC
FC
EC
EC
CC
ENDCHAR

STARTCHAR afii10028
ENCODING 186
SWIDTH 611 0
DWIDTH 6 0
BBX 5 7 1 0
BITMAP
D8
D8
F0
E0
F0
D8
D8
ENDCHAR

STARTCHAR afii10029
ENCODING 187
SWIDTH 702 0
DWIDTH 7 0
BBX 7 7 0 0
BITMAP
7E
66
66
66
66
66
C6
ENDCHAR

STARTCHAR afii10030
ENCODING 188
SWIDTH 833 0
DWIDTH 10 0
BBX 9 7 1 0
BITMAP
C180
E380
E380
F780
D580
DD80
C980
ENDCHAR

STARTCHAR afii10031
ENCODING 189
SWIDTH 722 0
DWIDTH 7 0
BBX 6 7 1 0
BITMAP
CC
CC
CC
FC
CC
CC
CC
ENDCHAR

STARTCHAR afii10032
ENCODING 190
SWIDTH 778 0
DWIDTH 8 0
BBX 7 7 1 0
BITMAP
7C
C6
C6
C6
C6
C6
7C
ENDCHAR

STARTCHAR afii10033
ENCODING 191
SWIDTH 722 0
DWIDTH 7 0
BBX 6 7 1 0
BITMAP
FC
CC
CC
CC
CC
CC
CC
ENDCHAR

STARTCHAR afii10034
ENCODING 192
SWIDTH 667 0
DWIDTH 7 0
BBX 6 7 1 0
BITMAP
F8
CC
CC
F8
C0
C0
C0
ENDCHAR

STARTCHAR afii10035
ENCODING 193
SWIDTH 722 0
DWIDTH 7 0
BBX 6 7 1 0
BITMAP
78
CC
C0
C0
C0
CC
78
ENDCHAR

STARTCHAR afii10036
ENCODING 194
SWIDTH 611 0
DWIDTH 7 0
BBX 6 7 1 0
BITMAP
FC
30
30
30
30
30
30
ENDCHAR

STARTCHAR afii10037
ENCODING 195
SWIDTH 622 0
DWIDTH 6 0
BBX 6 7 0 0
BITMAP
CC
6C
68
38
30
30
60
ENDCHAR

STARTCHAR afii10038
ENCODING 196
SWIDTH 853 0
DWIDTH 9 0
BBX 8 7 1 0
BITMAP
18
7E
DB
99
DB
7E
18
ENDCHAR

STARTCHAR afii10039
ENCODING 197
SWIDTH 667 0
DWIDTH 7 0
BBX 6 7 1 0
BITMAP
CC
CC
78
30
78
CC
CC
ENDCHAR

STARTCHAR afii10040
ENCODING 198
SWIDTH 734 0
DWIDTH 7 0
BBX 7 9 1 -2
BITMAP
CC
CC
CC
CC
CC
CC
FE
06
06
ENDCHAR

STARTCHAR afii10041
ENCODING 199
SWIDTH 696 0
DWIDTH 7 0
BBX 6 7 1 0
BITMAP
CC
CC
CC
7C
0C
0C
0C
ENDCHAR

STARTCHAR afii10042
ENCODING 200
SWIDTH 1004 0
DWIDTH 10 0
BBX 9 7 1 0
BITMAP
C980
C980
C980
C980
C980
C980
FF80
ENDCHAR

STARTCHAR afii10043
ENCODING 201
SWIDTH 1019 0
DWIDTH 10 0
BBX 10 9 1 -2
BITMAP
C980
C980
C980
C980
C980
C980
FFC0
00C0
00C0
ENDCHAR

STARTCHAR afii10044
ENCODING 202
SWIDTH 870 0
DWIDTH 9 0
BBX 9 7 0 0
BITMAP
F000
3000
3000
3F00
3180
3180
3F00
ENDCHAR

STARTCHAR afii10045
ENCODING 203
SWIDTH 979 0
DWIDTH 10 0
BBX 9 7 1 0
BITMAP
C180
C180
C180
F980
CD80
CD80
F980
ENDCHAR

STARTCHAR afii10046
ENCODING 204
SWIDTH 719 0
DWIDTH 7 0
BBX 6 7 1 0
BITMAP
C0
C0
C0
F8
CC
CC
F8
ENDCHAR

STARTCHAR afii10047
ENCODING 205
SWIDTH 711 0
DWIDTH 7 0
BBX 6 7 1 0
BITMAP
78
CC
0C
3C
0C
CC
78
ENDCHAR

STARTCHAR afii10048
ENCODING 206
SWIDTH 1027 0
DWIDTH 10 0
BBX 9 7 1 0
BITMAP
CF00
D980
D980
F980
D980
D980
CF00
ENDCHAR

STARTCHAR afii10049
ENCODING 207
SWIDTH 722 0
DWIDTH 7 0
BBX 6 7 1 0
BITMAP
7C
CC
CC
7C
6C
CC
CC
ENDCHAR

STARTCHAR afii10065
ENCODING 208
SWIDTH 556 0
DWIDTH 6 0
BBX 5 5 1 0
BITMAP
70
98
78
D8
78
ENDCHAR

STARTCHAR afii10066
ENCODING 209
SWIDTH 618 0
DWIDTH 6 0
BBX 5 7 1 0
BITMAP
38
40
F0
D8
D8
D8
70
ENDCHAR

STARTCHAR afii10067
ENCODING 210
SWIDTH 615 0
DWIDTH 6 0
BBX 5 5 1 0
BITMAP
F0
D8
F0
D8
F0
ENDCHAR

STARTCHAR afii10068
ENCODING 211
SWIDTH 427 0
DWIDTH 4 0
BBX 3 5 1 0
BITMAP
E0
C0
C0
C0
C0
ENDCHAR

STARTCHAR afii10069
ENCODING 212
SWIDTH 635 0
DWIDTH 6 0
BBX 7 7 0 -2
BITMAP
3C
2C
6C
4C
FC
C6
C6
ENDCHAR

STARTCHAR afii10070
ENCODING 213
SWIDTH 556 0
DWIDTH 6 0
BBX 5 5 1 0
BITMAP
70
D8
F8
C0
78
ENDCHAR

STARTCHAR afii10072
ENCODING 214
SWIDTH 709 0
DWIDTH 7 0
BBX 8 5 0 0
BITMAP
99
5A
7E
5A
99
ENDCHAR

STARTCHAR afii10073
ENCODING 215
SWIDTH 497 0
DWIDTH 5 0
BBX 4 5 1 0
BITMAP
E0
30
60
30
E0
ENDCHAR

STARTCHAR afii10074
ENCODING 216
SWIDTH 615 0
DWIDTH 5 0
BBX 4 5 1 0
BITMAP
90
B0
F0
D0
90
ENDCHAR

STARTCHAR afii10075
ENCODING 217
SWIDTH 610 0
DWIDTH 5 0
BBX 4 8 1 0
BITMAP
90
60
00
90
B0
F0
D0
90
ENDCHAR

STARTCHAR afii10076
ENCODING 218
SWIDTH 500 0
DWIDTH 6 0
BBX 5 5 1 0
BITMAP
D8
D0
E0
D0
D8
ENDCHAR

STARTCHAR afii10077
ENCODING 219
SWIDTH 635 0
DWIDTH 6 0
BBX 6 5 0 0
BITMAP
7C
6C
6C
6C
CC
ENDCHAR

STARTCHAR afii10078
ENCODING 220
SWIDTH 740 0
DWIDTH 8 0
BBX 7 5 1 0
BITMAP
C6
EE
FE
D6
C6
ENDCHAR

STARTCHAR afii10079
ENCODING 221
SWIDTH 604 0
DWIDTH 6 0
BBX 5 5 1 0
BITMAP
D8
D8
F8
D8
D8
ENDCHAR

STARTCHAR afii10080
ENCODING 222
SWIDTH 611 0
DWIDTH 6 0
BBX 5 5 1 0
BITMAP
70
D8
D8
D8
70
ENDCHAR

STARTCHAR afii10081
ENCODING 223
SWIDTH 604 0
DWIDTH 6 0
BBX 5 5 1 0
BITMAP
F8
D8
D8
D8
D8
ENDCHAR

STARTCHAR afii10082
ENCODING 224
SWIDTH 611 0
DWIDTH 6 0
BBX 5 7 1 -2
BITMAP
F0
D8
D8
D8
F0
C0
C0
ENDCHAR

STARTCHAR afii10083
ENCODING 225
SWIDTH 556 0
DWIDTH 6 0
BBX 5 5 1 0
BITMAP
70
D8
C0
D8
70
ENDCHAR

STARTCHAR afii10084
ENCODING 226
SWIDTH 490 0
DWIDTH 5 0
BBX 6 5 0 0
BITMAP
FC
30
30
30
30
ENDCHAR

STARTCHAR afii10085
ENCODING 227
SWIDTH 556 0
DWIDTH 6 0
BBX 5 7 1 -2
BITMAP
D8
D8
50
70
20
60
C0
ENDCHAR

STARTCHAR afii10086
ENCODING 228
SWIDTH 875 0
DWIDTH 9 0
BBX 8 9 1 -2
BITMAP
18
18
5A
BD
99
BD
5A
18
18
ENDCHAR

STARTCHAR afii10087
ENCODING 229
SWIDTH 556 0
DWIDTH 6 0
BBX 5 5 1 0
BITMAP
D8
70
20
70
D8
ENDCHAR

STARTCHAR afii10088
ENCODING 230
SWIDTH 615 0
DWIDTH 6 0
BBX 6 7 1 -2
BITMAP
D8
D8
D8
D8
FC
0C
0C
ENDCHAR

STARTCHAR afii10089
ENCODING 231
SWIDTH 581 0
DWIDTH 6 0
BBX 5 5 1 0
BITMAP
D8
D8
78
18
18
ENDCHAR

STARTCHAR afii10090
ENCODING 232
SWIDTH 833 0
DWIDTH 8 0
BBX 7 5 1 0
BITMAP
D6
D6
D6
D6
FE
ENDCHAR

STARTCHAR afii10091
ENCODING 233
SWIDTH 844 0
DWIDTH 8 0
BBX 8 7 1 -2
BITMAP
D6
D6
D6
D6
FF
03
03
ENDCHAR

STARTCHAR afii10092
ENCODING 234
SWIDTH 721 0
DWIDTH 7 0
BBX 7 5 0 0
BITMAP
F0
30
3C
36
3C
ENDCHAR

STARTCHAR afii10093
ENCODING 235
SWIDTH 840 0
DWIDTH 8 0
BBX 7 5 1 0
BITMAP
C6
C6
F6
DE
F6
ENDCHAR

STARTCHAR afii10094
ENCODING 236
SWIDTH 598 0
DWIDTH 6 0
BBX 5 5 1 0
BITMAP
C0
C0
F0
D8
F0
ENDCHAR

STARTCHAR afii10095
ENCODING 237
SWIDTH 552 0
DWIDTH 6 0
BBX 5 5 1 0
BITMAP
70
98
38
98
70
ENDCHAR

STARTCHAR afii10096
ENCODING 238
SWIDTH 849 0
DWIDTH 8 0
BBX 7 5 1 0
BITMAP
DC
D6
F6
D6
DC
ENDCHAR

STARTCHAR afii10097
ENCODING 239
SWIDTH 583 0
DWIDTH 6 0
BBX 5 5 1 0
BITMAP
78
D8
78
58
98
ENDCHAR

STARTCHAR afii61352
ENCODING 240
SWIDTH 1115 0
DWIDTH 11 0
BBX 10 7 1 0
BITMAP
CC00
ED80
EEC0
FEC0
DD80
DF80
CC00
ENDCHAR

STARTCHAR afii10071
ENCODING 241
SWIDTH 556 0
DWIDTH 6 0
BBX 5 7 1 0
BITMAP
50
00
70
D8
F8
C0
78
ENDCHAR

STARTCHAR afii10099
ENCODING 242
SWIDTH 611 0
DWIDTH 6 0
BBX 6 9 0 -2
BITMAP
60
F0
60
78
6C
6C
6C
0C
18
ENDCHAR

STARTCHAR afii10100
ENCODING 243
SWIDTH 427 0
DWIDTH 4 0
BBX 3 8 1 0
BITMAP
20
40
00
E0
C0
C0
C0
C0
ENDCHAR

STARTCHAR afii10101
ENCODING 244
SWIDTH 552 0
DWIDTH 6 0
BBX 5 5 1 0
BITMAP
70
C8
E0
C8
70
ENDCHAR

STARTCHAR afii10102
ENCODING 245
SWIDTH 556 0
DWIDTH 6 0
BBX 5 5 1 0
BITMAP
78
E0
70
38
F0
ENDCHAR

STARTCHAR afii10103
ENCODING 246
SWIDTH 278 0
DWIDTH 3 0
BBX 2 7 1 0
BITMAP
C0
00
C0
C0
C0
C0
C0
ENDCHAR

STARTCHAR afii10104
ENCODING 247
SWIDTH 278 0
DWIDTH 3 0
BBX 4 7 0 0
BITMAP
90
00
60
60
60
60
60
ENDCHAR

STARTCHAR afii10105
ENCODING 248
SWIDTH 278 0
DWIDTH 3 0
BBX 3 9 0 -2
BITMAP
60
00
60
60
60
60
60
60
C0
ENDCHAR

STARTCHAR afii10106
ENCODING 249
SWIDTH 963 0
DWIDTH 10 0
BBX 10 5 0 0
BITMAP
7C00
6C00
6F80
6CC0
CF80
ENDCHAR

STARTCHAR afii10107
ENCODING 250
SWIDTH 895 0
DWIDTH 9 0
BBX 8 5 1 0
BITMAP
D8
D8
FE
DB
DE
ENDCHAR

STARTCHAR afii10108
ENCODING 251
SWIDTH 611 0
DWIDTH 6 0
BBX 6 7 0 0
BITMAP
60
F0
60
78
6C
6C
6C
ENDCHAR

STARTCHAR afii10109
ENCODING 252
SWIDTH 500 0
DWIDTH 6 0
BBX 5 8 1 0
BITMAP
20
40
00
D8
D0
E0
D0
D8
ENDCHAR

STARTCHAR section
ENCODING 253
SWIDTH 556 0
DWIDTH 6 0
BBX 4 9 1 -2
BITMAP
60
D0
40
E0
90
70
20
B0
60
ENDCHAR

STARTCHAR afii10110
ENCODING 254
SWIDTH 556 0
DWIDTH 6 0
BBX 5 10 1 -2
BITMAP
48
30
00
D8
D8
50
70
20
60
C0
ENDCHAR

STARTCHAR afii10193
ENCODING 255
SWIDTH 604 0
DWIDTH 6 0
BBX 5 7 1 -2
BITMAP
D8
D8
D8
D8
F8
20
20
ENDCHAR
ENDFONT
